<mxfile host="app.diagrams.net" modified="2022-01-21T10:08:06.636Z" agent="5.0 (Macintosh; Intel Mac OS X 10_15_7) AppleWebKit/537.36 (KHTML, like Gecko) Chrome/97.0.4692.71 Safari/537.36" etag="8a2qevjJ7n_7v9J6VZfL" version="16.4.3" type="github">
  <diagram id="gbCbJYSVcb7RdUFAOQYu" name="Page-1">
    <mxGraphModel dx="1186" dy="325" grid="1" gridSize="10" guides="1" tooltips="1" connect="1" arrows="1" fold="1" page="1" pageScale="1" pageWidth="583" pageHeight="413" math="0" shadow="0">
      <root>
        <mxCell id="0" />
        <mxCell id="1" parent="0" />
        <mxCell id="z6ky9Psadl0JsnS_RLIc-1" value="" style="rounded=0;whiteSpace=wrap;html=1;dashed=1;" vertex="1" parent="1">
          <mxGeometry x="60" y="450" width="700" height="160" as="geometry" />
        </mxCell>
        <mxCell id="z6ky9Psadl0JsnS_RLIc-2" value="&lt;b&gt;SEO&lt;/b&gt;" style="text;html=1;align=center;verticalAlign=middle;resizable=0;points=[];autosize=1;strokeColor=none;fillColor=none;" vertex="1" parent="1">
          <mxGeometry x="10" y="505" width="40" height="20" as="geometry" />
        </mxCell>
        <mxCell id="z6ky9Psadl0JsnS_RLIc-3" value="Neil Wu" style="rounded=1;whiteSpace=wrap;html=1;" vertex="1" parent="1">
          <mxGeometry x="170" y="480" width="80" height="45" as="geometry" />
        </mxCell>
        <mxCell id="z6ky9Psadl0JsnS_RLIc-4" value="深圳主管" style="text;html=1;align=center;verticalAlign=middle;resizable=0;points=[];autosize=1;strokeColor=none;fillColor=none;" vertex="1" parent="1">
          <mxGeometry x="180" y="413" width="60" height="20" as="geometry" />
        </mxCell>
        <mxCell id="z6ky9Psadl0JsnS_RLIc-5" value="上海业务对接" style="text;html=1;align=center;verticalAlign=middle;resizable=0;points=[];autosize=1;strokeColor=none;fillColor=none;" vertex="1" parent="1">
          <mxGeometry x="270" y="413" width="90" height="20" as="geometry" />
        </mxCell>
        <mxCell id="z6ky9Psadl0JsnS_RLIc-6" value="Chuck Ge&lt;br&gt;葛神毅" style="rounded=1;whiteSpace=wrap;html=1;" vertex="1" parent="1">
          <mxGeometry x="275" y="480" width="80" height="45" as="geometry" />
        </mxCell>
        <mxCell id="z6ky9Psadl0JsnS_RLIc-7" value="上海前端成员" style="text;html=1;align=center;verticalAlign=middle;resizable=0;points=[];autosize=1;strokeColor=none;fillColor=none;" vertex="1" parent="1">
          <mxGeometry x="410" y="413" width="90" height="20" as="geometry" />
        </mxCell>
        <mxCell id="z6ky9Psadl0JsnS_RLIc-8" value="Noom Liu&lt;br&gt;牛旭东（小组长）" style="rounded=1;whiteSpace=wrap;html=1;" vertex="1" parent="1">
          <mxGeometry x="390" y="462.5" width="130" height="30" as="geometry" />
        </mxCell>
        <mxCell id="z6ky9Psadl0JsnS_RLIc-9" value="Alex He&lt;br&gt;何京" style="rounded=1;whiteSpace=wrap;html=1;" vertex="1" parent="1">
          <mxGeometry x="377" y="512.5" width="70" height="30" as="geometry" />
        </mxCell>
        <mxCell id="z6ky9Psadl0JsnS_RLIc-10" value="Keji Zhang&lt;br&gt;张克忌" style="rounded=1;whiteSpace=wrap;html=1;" vertex="1" parent="1">
          <mxGeometry x="466" y="512.5" width="70" height="30" as="geometry" />
        </mxCell>
        <mxCell id="z6ky9Psadl0JsnS_RLIc-11" value="Wei Wang&lt;br&gt;王威" style="rounded=1;whiteSpace=wrap;html=1;" vertex="1" parent="1">
          <mxGeometry x="377" y="560" width="70" height="30" as="geometry" />
        </mxCell>
        <mxCell id="z6ky9Psadl0JsnS_RLIc-12" value="上海后端成员" style="text;html=1;align=center;verticalAlign=middle;resizable=0;points=[];autosize=1;strokeColor=none;fillColor=none;" vertex="1" parent="1">
          <mxGeometry x="610" y="413" width="90" height="20" as="geometry" />
        </mxCell>
        <mxCell id="z6ky9Psadl0JsnS_RLIc-13" value="Johnson Zhang&lt;br&gt;&lt;font style=&quot;font-size: 12px&quot;&gt;&lt;span style=&quot;text-align: left ; background-color: rgb(255 , 255 , 255)&quot;&gt;章晟炯&lt;/span&gt;（小组长）&lt;/font&gt;" style="rounded=1;whiteSpace=wrap;html=1;" vertex="1" parent="1">
          <mxGeometry x="588.5" y="462.25" width="130" height="30" as="geometry" />
        </mxCell>
        <mxCell id="z6ky9Psadl0JsnS_RLIc-14" value="Zhongjian Qi&lt;br&gt;齐中建" style="rounded=1;whiteSpace=wrap;html=1;" vertex="1" parent="1">
          <mxGeometry x="570" y="512.25" width="75.5" height="30" as="geometry" />
        </mxCell>
        <mxCell id="z6ky9Psadl0JsnS_RLIc-15" value="Jay Li&lt;br&gt;李欢欢" style="rounded=1;whiteSpace=wrap;html=1;" vertex="1" parent="1">
          <mxGeometry x="664.5" y="512.25" width="75.5" height="30" as="geometry" />
        </mxCell>
        <mxCell id="z6ky9Psadl0JsnS_RLIc-16" value="Hui Yang&lt;br&gt;杨辉" style="rounded=1;whiteSpace=wrap;html=1;" vertex="1" parent="1">
          <mxGeometry x="570" y="559.75" width="75.5" height="30" as="geometry" />
        </mxCell>
        <mxCell id="z6ky9Psadl0JsnS_RLIc-17" value="Freya Zhang&lt;br&gt;张芸蜻" style="rounded=1;whiteSpace=wrap;html=1;" vertex="1" parent="1">
          <mxGeometry x="664.5" y="559.75" width="75.5" height="30" as="geometry" />
        </mxCell>
        <mxCell id="z6ky9Psadl0JsnS_RLIc-19" value="" style="rounded=0;whiteSpace=wrap;html=1;dashed=1;" vertex="1" parent="1">
          <mxGeometry x="60" y="633" width="700" height="323" as="geometry" />
        </mxCell>
        <mxCell id="z6ky9Psadl0JsnS_RLIc-20" value="&lt;b&gt;Search&lt;/b&gt;" style="text;html=1;align=center;verticalAlign=middle;resizable=0;points=[];autosize=1;strokeColor=none;fillColor=none;" vertex="1" parent="1">
          <mxGeometry y="786" width="60" height="20" as="geometry" />
        </mxCell>
        <mxCell id="z6ky9Psadl0JsnS_RLIc-21" value="Sherlock Liu" style="rounded=1;whiteSpace=wrap;html=1;" vertex="1" parent="1">
          <mxGeometry x="170" y="663" width="80" height="45" as="geometry" />
        </mxCell>
        <mxCell id="z6ky9Psadl0JsnS_RLIc-24" value="Harry Liu&lt;br&gt;刘伟" style="rounded=1;whiteSpace=wrap;html=1;" vertex="1" parent="1">
          <mxGeometry x="275" y="663" width="80" height="45" as="geometry" />
        </mxCell>
        <mxCell id="z6ky9Psadl0JsnS_RLIc-26" value="Sean Wang&lt;br&gt;王晓波（小组长）" style="rounded=1;whiteSpace=wrap;html=1;" vertex="1" parent="1">
          <mxGeometry x="390" y="645.5" width="130" height="30" as="geometry" />
        </mxCell>
        <mxCell id="z6ky9Psadl0JsnS_RLIc-27" value="Joni Gu&lt;br&gt;顾琦君" style="rounded=1;whiteSpace=wrap;html=1;" vertex="1" parent="1">
          <mxGeometry x="377" y="695.5" width="70" height="30" as="geometry" />
        </mxCell>
        <mxCell id="z6ky9Psadl0JsnS_RLIc-28" value="Lydia Zhang&lt;br&gt;张丽娜" style="rounded=1;whiteSpace=wrap;html=1;" vertex="1" parent="1">
          <mxGeometry x="466" y="695.5" width="70" height="30" as="geometry" />
        </mxCell>
        <mxCell id="z6ky9Psadl0JsnS_RLIc-29" value="Andre Huang&lt;br&gt;黄磊磊" style="rounded=1;whiteSpace=wrap;html=1;" vertex="1" parent="1">
          <mxGeometry x="370" y="743" width="77" height="30" as="geometry" />
        </mxCell>
        <mxCell id="z6ky9Psadl0JsnS_RLIc-36" value="Trianglet" style="shape=parallelogram;perimeter=parallelogramPerimeter;whiteSpace=wrap;html=1;fixedSize=1;fontSize=12;" vertex="1" parent="1">
          <mxGeometry x="73" y="487.38" width="90" height="28.62" as="geometry" />
        </mxCell>
        <mxCell id="z6ky9Psadl0JsnS_RLIc-54" value="小队名称&lt;br&gt;Squad" style="text;html=1;align=center;verticalAlign=middle;resizable=0;points=[];autosize=1;strokeColor=none;fillColor=none;" vertex="1" parent="1">
          <mxGeometry x="80" y="413" width="60" height="30" as="geometry" />
        </mxCell>
        <mxCell id="z6ky9Psadl0JsnS_RLIc-55" value="部落名称&lt;br&gt;Tribe" style="text;html=1;align=center;verticalAlign=middle;resizable=0;points=[];autosize=1;strokeColor=none;fillColor=none;" vertex="1" parent="1">
          <mxGeometry y="413" width="60" height="30" as="geometry" />
        </mxCell>
        <mxCell id="z6ky9Psadl0JsnS_RLIc-56" value="WoodPecker" style="shape=parallelogram;perimeter=parallelogramPerimeter;whiteSpace=wrap;html=1;fixedSize=1;fontSize=12;" vertex="1" parent="1">
          <mxGeometry x="69" y="672.5" width="90" height="30.5" as="geometry" />
        </mxCell>
        <mxCell id="z6ky9Psadl0JsnS_RLIc-57" value="Linch Liu&lt;br&gt;刘祺" style="rounded=1;whiteSpace=wrap;html=1;" vertex="1" parent="1">
          <mxGeometry x="466" y="742.75" width="74" height="30" as="geometry" />
        </mxCell>
        <mxCell id="z6ky9Psadl0JsnS_RLIc-58" value="Wesley Wei&lt;br&gt;&lt;div style=&quot;text-align: left&quot;&gt;&lt;span style=&quot;background-color: rgb(255 , 255 , 255)&quot;&gt;韦永满&lt;/span&gt;&lt;span&gt;（小组长）&lt;/span&gt;&lt;/div&gt;" style="rounded=1;whiteSpace=wrap;html=1;" vertex="1" parent="1">
          <mxGeometry x="587" y="806" width="130" height="30" as="geometry" />
        </mxCell>
        <mxCell id="z6ky9Psadl0JsnS_RLIc-59" value="Alphonse Xu&lt;br&gt;徐江华" style="rounded=1;whiteSpace=wrap;html=1;" vertex="1" parent="1">
          <mxGeometry x="568.5" y="856" width="75.5" height="30" as="geometry" />
        </mxCell>
        <mxCell id="z6ky9Psadl0JsnS_RLIc-60" value="Guojie Zhu&lt;br&gt;朱国杰" style="rounded=1;whiteSpace=wrap;html=1;" vertex="1" parent="1">
          <mxGeometry x="663" y="856" width="75.5" height="30" as="geometry" />
        </mxCell>
        <mxCell id="z6ky9Psadl0JsnS_RLIc-61" value="Mathew Wu&lt;br&gt;武正昱" style="rounded=1;whiteSpace=wrap;html=1;" vertex="1" parent="1">
          <mxGeometry x="568.5" y="903.5" width="75.5" height="30" as="geometry" />
        </mxCell>
        <mxCell id="z6ky9Psadl0JsnS_RLIc-63" value="无" style="text;html=1;strokeColor=none;fillColor=none;align=center;verticalAlign=middle;whiteSpace=wrap;rounded=0;fontSize=12;" vertex="1" parent="1">
          <mxGeometry x="625" y="686" width="60" height="30" as="geometry" />
        </mxCell>
        <mxCell id="z6ky9Psadl0JsnS_RLIc-64" value="无" style="text;html=1;strokeColor=none;fillColor=none;align=center;verticalAlign=middle;whiteSpace=wrap;rounded=0;fontSize=12;" vertex="1" parent="1">
          <mxGeometry x="425" y="866" width="60" height="30" as="geometry" />
        </mxCell>
        <mxCell id="z6ky9Psadl0JsnS_RLIc-65" value="Pangoo" style="shape=parallelogram;perimeter=parallelogramPerimeter;whiteSpace=wrap;html=1;fixedSize=1;fontSize=12;" vertex="1" parent="1">
          <mxGeometry x="73" y="865.5" width="90" height="30.5" as="geometry" />
        </mxCell>
        <mxCell id="z6ky9Psadl0JsnS_RLIc-66" value="Bill Wang" style="rounded=1;whiteSpace=wrap;html=1;" vertex="1" parent="1">
          <mxGeometry x="170" y="856" width="80" height="45" as="geometry" />
        </mxCell>
        <mxCell id="z6ky9Psadl0JsnS_RLIc-67" value="Harry Liu&lt;br&gt;刘伟" style="rounded=1;whiteSpace=wrap;html=1;" vertex="1" parent="1">
          <mxGeometry x="275" y="856" width="80" height="45" as="geometry" />
        </mxCell>
        <mxCell id="z6ky9Psadl0JsnS_RLIc-69" value="深圳主管" style="text;html=1;align=center;verticalAlign=middle;resizable=0;points=[];autosize=1;strokeColor=none;fillColor=none;" vertex="1" parent="1">
          <mxGeometry x="180" y="966" width="60" height="20" as="geometry" />
        </mxCell>
        <mxCell id="z6ky9Psadl0JsnS_RLIc-70" value="上海业务对接" style="text;html=1;align=center;verticalAlign=middle;resizable=0;points=[];autosize=1;strokeColor=none;fillColor=none;" vertex="1" parent="1">
          <mxGeometry x="270" y="966" width="90" height="20" as="geometry" />
        </mxCell>
        <mxCell id="z6ky9Psadl0JsnS_RLIc-71" value="上海前端成员" style="text;html=1;align=center;verticalAlign=middle;resizable=0;points=[];autosize=1;strokeColor=none;fillColor=none;" vertex="1" parent="1">
          <mxGeometry x="410" y="966" width="90" height="20" as="geometry" />
        </mxCell>
        <mxCell id="z6ky9Psadl0JsnS_RLIc-72" value="上海后端成员" style="text;html=1;align=center;verticalAlign=middle;resizable=0;points=[];autosize=1;strokeColor=none;fillColor=none;" vertex="1" parent="1">
          <mxGeometry x="610" y="966" width="90" height="20" as="geometry" />
        </mxCell>
        <mxCell id="z6ky9Psadl0JsnS_RLIc-73" value="小队名称&lt;br&gt;Squad" style="text;html=1;align=center;verticalAlign=middle;resizable=0;points=[];autosize=1;strokeColor=none;fillColor=none;" vertex="1" parent="1">
          <mxGeometry x="80" y="966" width="60" height="30" as="geometry" />
        </mxCell>
        <mxCell id="z6ky9Psadl0JsnS_RLIc-74" value="部落名称&lt;br&gt;Tribe" style="text;html=1;align=center;verticalAlign=middle;resizable=0;points=[];autosize=1;strokeColor=none;fillColor=none;" vertex="1" parent="1">
          <mxGeometry y="966" width="60" height="30" as="geometry" />
        </mxCell>
      </root>
    </mxGraphModel>
  </diagram>
</mxfile>
